<svg width="169" height="38" viewBox="0 0 169 38" fill="none" xmlns="http://www.w3.org/2000/svg">
<path d="M28.473 18.908C28.3856 18.9779 28.3372 18.994 28.3278 18.9564C27.4771 18.9416 26.6265 18.9342 25.7758 18.9342C24.577 18.9342 23.7277 18.8959 23.2278 18.8193C21.2832 18.5223 19.6288 17.7166 18.2648 16.4023C15.4681 13.7065 14.6302 10.3299 15.751 6.27273C15.88 6.0362 16.005 5.78624 16.126 5.52284C17.4463 2.67849 19.8674 0.821902 22.9375 0.140549C23.3071 0.0585716 23.9454 0.0162388 24.8525 0.013551C29.1664 -0.00123178 33.4346 -0.00391975 37.6571 0.0054875C37.8211 0.0054875 37.8661 0.0787296 37.7922 0.225214L28.473 18.908Z" fill="#92B1FF"/>
<path d="M15.751 6.27271C14.6302 10.3299 15.4681 13.7064 18.2648 16.4023C19.6288 17.7166 21.2831 18.5223 23.2277 18.8193C23.7277 18.8959 24.577 18.9342 25.7758 18.9342C26.6264 18.9342 27.4771 18.9416 28.3278 18.9564L18.8917 38L0.108104 37.9939C0.0896412 37.9938 0.071515 37.989 0.0554287 37.9799C0.0393425 37.9708 0.0258242 37.9578 0.0161477 37.9421C0.00647116 37.9264 0.000953335 37.9085 0.000112865 37.89C-0.000727604 37.8716 0.00313678 37.8532 0.0113431 37.8367L15.751 6.27271Z" fill="#4141F9"/>
<path d="M18.8916 38L28.3277 18.9564C28.3371 18.994 28.3855 18.9779 28.4729 18.908C29.6649 18.8986 30.8442 18.8939 32.0107 18.8939C33.2242 18.8952 34.4922 19.1996 35.8146 19.8071C40.1466 21.7987 42.2592 26.7395 40.8582 31.2913C39.8684 34.5025 37.1692 37.0505 33.8249 37.7823C33.161 37.9274 32.1457 38 30.779 38C26.8548 37.9987 22.8924 37.9987 18.8916 38Z" fill="#0123FF"/>
<path d="M69.0901 19.1091C69.0901 20.8455 68.7561 22.3173 68.0883 23.5246C67.4204 24.7319 66.5163 25.6489 65.3758 26.2756C64.2404 26.9024 62.9664 27.2158 61.5536 27.2158C60.1357 27.2158 58.8591 26.8998 57.7238 26.2679C56.5884 25.636 55.6868 24.719 55.019 23.5169C54.3562 22.3096 54.0249 20.8404 54.0249 19.1091C54.0249 17.3727 54.3562 15.9008 55.019 14.6936C55.6868 13.4863 56.5884 12.5693 57.7238 11.9425C58.8591 11.3158 60.1357 11.0024 61.5536 11.0024C62.9664 11.0024 64.2404 11.3158 65.3758 11.9425C66.5163 12.5693 67.4204 13.4863 68.0883 14.6936C68.7561 15.9008 69.0901 17.3727 69.0901 19.1091ZM65.1908 19.1091C65.1908 18.0816 65.0444 17.2134 64.7516 16.5045C64.4639 15.7955 64.0478 15.2587 63.5032 14.8939C62.9638 14.5292 62.3139 14.3468 61.5536 14.3468C60.7984 14.3468 60.1486 14.5292 59.604 14.8939C59.0595 15.2587 58.6408 15.7955 58.3479 16.5045C58.0603 17.2134 57.9164 18.0816 57.9164 19.1091C57.9164 20.1366 58.0603 21.0048 58.3479 21.7137C58.6408 22.4227 59.0595 22.9595 59.604 23.3243C60.1486 23.689 60.7984 23.8714 61.5536 23.8714C62.3139 23.8714 62.9638 23.689 63.5032 23.3243C64.0478 22.9595 64.4639 22.4227 64.7516 21.7137C65.0444 21.0048 65.1908 20.1366 65.1908 19.1091ZM79.8476 15.9496C79.7962 15.3845 79.5676 14.9453 79.1618 14.6319C78.761 14.3134 78.1882 14.1542 77.4433 14.1542C76.9501 14.1542 76.5392 14.2184 76.2104 14.3468C75.8816 14.4752 75.635 14.6525 75.4706 14.8785C75.3062 15.0994 75.2214 15.3537 75.2163 15.6414C75.206 15.8777 75.2523 16.0858 75.355 16.2656C75.4629 16.4454 75.617 16.6047 75.8174 16.7434C76.0229 16.8769 76.2694 16.9951 76.5571 17.0978C76.8448 17.2006 77.1685 17.2905 77.5281 17.3675L78.8843 17.6758C79.6652 17.8453 80.3536 18.0714 80.9495 18.3539C81.5506 18.6365 82.0541 18.973 82.4599 19.3634C82.8709 19.7538 83.1817 20.2033 83.3923 20.7119C83.603 21.2205 83.7108 21.7908 83.716 22.4227C83.7108 23.4193 83.4591 24.2747 82.9608 24.9887C82.4625 25.7028 81.7458 26.25 80.8108 26.6301C79.881 27.0103 78.7585 27.2004 77.4433 27.2004C76.123 27.2004 74.9723 27.0026 73.9911 26.607C73.0098 26.2114 72.2469 25.6104 71.7024 24.8038C71.1578 23.9972 70.8778 22.9775 70.8624 21.7445H74.5151C74.5459 22.2531 74.682 22.677 74.9235 23.016C75.1649 23.3551 75.4963 23.6119 75.9175 23.7866C76.3439 23.9613 76.8371 24.0486 77.3971 24.0486C77.9108 24.0486 78.3475 23.9793 78.7071 23.8406C79.0719 23.7018 79.3518 23.5092 79.5471 23.2626C79.7423 23.016 79.8424 22.7335 79.8476 22.415C79.8424 22.117 79.75 21.8627 79.5702 21.6521C79.3904 21.4363 79.1129 21.2513 78.7379 21.0972C78.368 20.938 77.8954 20.7916 77.32 20.658L75.671 20.2727C74.3044 19.9593 73.2282 19.4533 72.4422 18.7546C71.6561 18.0508 71.2657 17.1004 71.2708 15.9034C71.2657 14.9273 71.5277 14.072 72.0569 13.3373C72.586 12.6027 73.3181 12.0299 74.2531 11.6189C75.188 11.2079 76.254 11.0024 77.451 11.0024C78.6737 11.0024 79.7346 11.2105 80.6336 11.6266C81.5378 12.0376 82.239 12.6155 82.7373 13.3604C83.2356 14.1054 83.4899 14.9684 83.5002 15.9496H79.8476ZM94.173 15.9496C94.1216 15.3845 93.893 14.9453 93.4871 14.6319C93.0864 14.3134 92.5136 14.1542 91.7687 14.1542C91.2755 14.1542 90.8645 14.2184 90.5358 14.3468C90.207 14.4752 89.9604 14.6525 89.796 14.8785C89.6316 15.0994 89.5468 15.3537 89.5417 15.6414C89.5314 15.8777 89.5777 16.0858 89.6804 16.2656C89.7883 16.4454 89.9424 16.6047 90.1428 16.7434C90.3482 16.8769 90.5948 16.9951 90.8825 17.0978C91.1702 17.2006 91.4939 17.2905 91.8535 17.3675L93.2097 17.6758C93.9906 17.8453 94.679 18.0714 95.2749 18.3539C95.876 18.6365 96.3794 18.973 96.7853 19.3634C97.1963 19.7538 97.5071 20.2033 97.7177 20.7119C97.9283 21.2205 98.0362 21.7908 98.0414 22.4227C98.0362 23.4193 97.7845 24.2747 97.2862 24.9887C96.7879 25.7028 96.0712 26.25 95.1362 26.6301C94.2064 27.0103 93.0839 27.2004 91.7687 27.2004C90.4484 27.2004 89.2977 27.0026 88.3164 26.607C87.3352 26.2114 86.5723 25.6104 86.0278 24.8038C85.4832 23.9972 85.2032 22.9775 85.1878 21.7445H88.8404C88.8713 22.2531 89.0074 22.677 89.2489 23.016C89.4903 23.3551 89.8217 23.6119 90.2429 23.7866C90.6693 23.9613 91.1625 24.0486 91.7225 24.0486C92.2362 24.0486 92.6729 23.9793 93.0325 23.8406C93.3972 23.7018 93.6772 23.5092 93.8724 23.2626C94.0677 23.016 94.1678 22.7335 94.173 22.415C94.1678 22.117 94.0754 21.8627 93.8956 21.6521C93.7158 21.4363 93.4383 21.2513 93.0633 21.0972C92.6934 20.938 92.2208 20.7916 91.6454 20.658L89.9963 20.2727C88.6298 19.9593 87.5535 19.4533 86.7675 18.7546C85.9815 18.0508 85.5911 17.1004 85.5962 15.9034C85.5911 14.9273 85.8531 14.072 86.3822 13.3373C86.9114 12.6027 87.6435 12.0299 88.5784 11.6189C89.5134 11.2079 90.5794 11.0024 91.7764 11.0024C92.9991 11.0024 94.06 11.2105 94.959 11.6266C95.8631 12.0376 96.5644 12.6155 97.0627 13.3604C97.561 14.1054 97.8153 14.9684 97.8256 15.9496H94.173ZM114.987 16.3735C114.899 16.0498 114.771 15.7647 114.601 15.5181C114.432 15.2664 114.224 15.0532 113.977 14.8785C113.731 14.7038 113.448 14.5728 113.13 14.4855C112.811 14.393 112.462 14.3468 112.082 14.3468C111.316 14.3468 110.653 14.5317 110.093 14.9016C109.539 15.2715 109.11 15.8109 108.807 16.5199C108.503 17.2237 108.352 18.0791 108.352 19.086C108.352 20.098 108.498 20.9611 108.791 21.6752C109.084 22.3893 109.508 22.9338 110.063 23.3088C110.618 23.6839 111.29 23.8714 112.082 23.8714C112.78 23.8714 113.371 23.7584 113.854 23.5323C114.342 23.3011 114.712 22.9749 114.964 22.5537C115.215 22.1324 115.341 21.6366 115.341 21.0664L116.05 21.1512H112.213V18.3693H119.017V20.4576C119.017 21.8704 118.716 23.0802 118.115 24.0871C117.519 25.0941 116.698 25.8672 115.649 26.4066C114.607 26.9461 113.407 27.2158 112.051 27.2158C110.546 27.2158 109.223 26.8895 108.082 26.2371C106.942 25.5847 106.053 24.6548 105.416 23.4475C104.779 22.2351 104.46 20.7967 104.46 19.1322C104.46 17.8376 104.653 16.6894 105.038 15.6876C105.424 14.6807 105.961 13.8279 106.649 13.1293C107.342 12.4306 108.144 11.9014 109.053 11.5418C109.968 11.1822 110.951 11.0024 112.005 11.0024C112.919 11.0024 113.769 11.1334 114.555 11.3954C115.346 11.6574 116.045 12.0273 116.651 12.5051C117.263 12.9828 117.758 13.5505 118.139 14.2081C118.519 14.8657 118.755 15.5875 118.847 16.3735H114.987ZM128.902 21.8909V15.1636H132.662V27H129.071V24.7961H128.948C128.686 25.5205 128.239 26.0958 127.607 26.5222C126.98 26.9435 126.223 27.1541 125.334 27.1541C124.527 27.1541 123.818 26.9692 123.207 26.5993C122.596 26.2294 122.121 25.7131 121.782 25.0504C121.442 24.3825 121.27 23.6017 121.265 22.7078V15.1636H125.033V21.968C125.039 22.6102 125.208 23.1162 125.542 23.4861C125.876 23.856 126.331 24.0409 126.906 24.0409C127.281 24.0409 127.618 23.9587 127.915 23.7943C128.219 23.6248 128.457 23.3808 128.632 23.0623C128.812 22.7386 128.902 22.3482 128.902 21.8909ZM138.398 27.2004C137.642 27.2004 136.972 27.0745 136.386 26.8228C135.806 26.5659 135.346 26.1806 135.007 25.6669C134.673 25.148 134.506 24.4981 134.506 23.7173C134.506 23.0597 134.622 22.5049 134.853 22.0528C135.084 21.6007 135.402 21.2334 135.808 20.9508C136.214 20.6683 136.682 20.4551 137.211 20.3112C137.74 20.1622 138.305 20.0621 138.906 20.0107C139.579 19.949 140.121 19.8848 140.532 19.818C140.943 19.7461 141.241 19.6459 141.426 19.5175C141.616 19.3839 141.711 19.1964 141.711 18.955V18.9164C141.711 18.5209 141.575 18.2152 141.303 17.9994C141.03 17.7837 140.663 17.6758 140.201 17.6758C139.702 17.6758 139.302 17.7837 138.999 17.9994C138.695 18.2152 138.503 18.5132 138.421 18.8933L134.945 18.77C135.048 18.0508 135.313 17.4086 135.739 16.8435C136.17 16.2733 136.761 15.8264 137.511 15.5027C138.267 15.1739 139.173 15.0095 140.232 15.0095C140.987 15.0095 141.683 15.0994 142.32 15.2792C142.957 15.4539 143.512 15.7108 143.984 16.0498C144.457 16.3837 144.822 16.7947 145.079 17.2828C145.341 17.7708 145.472 18.3282 145.472 18.955V27H141.927V25.3509H141.834C141.624 25.7516 141.354 26.0907 141.025 26.3681C140.702 26.6455 140.319 26.8536 139.877 26.9923C139.44 27.131 138.947 27.2004 138.398 27.2004ZM139.561 24.7344C139.967 24.7344 140.332 24.6522 140.655 24.4879C140.984 24.3235 141.246 24.0974 141.441 23.8097C141.637 23.5169 141.734 23.1778 141.734 22.7925V21.6675C141.626 21.724 141.495 21.7754 141.341 21.8216C141.192 21.8678 141.028 21.9115 140.848 21.9526C140.668 21.9937 140.483 22.0297 140.293 22.0605C140.103 22.0913 139.921 22.1196 139.746 22.1452C139.392 22.2018 139.088 22.2891 138.837 22.4072C138.59 22.5254 138.4 22.6795 138.267 22.8696C138.138 23.0545 138.074 23.2754 138.074 23.5323C138.074 23.9228 138.213 24.2207 138.49 24.4262C138.773 24.6317 139.13 24.7344 139.561 24.7344ZM147.776 27V15.1636H151.436V17.3213H151.559C151.775 16.5404 152.127 15.9599 152.615 15.5798C153.103 15.1945 153.671 15.0018 154.318 15.0018C154.493 15.0018 154.673 15.0147 154.857 15.0403C155.042 15.0609 155.214 15.0943 155.374 15.1405V18.4156C155.194 18.3539 154.958 18.3051 154.665 18.2691C154.377 18.2332 154.12 18.2152 153.894 18.2152C153.447 18.2152 153.044 18.3154 152.684 18.5157C152.33 18.7109 152.05 18.9858 151.844 19.3403C151.644 19.6896 151.544 20.1006 151.544 20.5732V27H147.776ZM160.618 27.1695C159.744 27.1695 158.951 26.9435 158.237 26.4914C157.522 26.0393 156.952 25.3612 156.526 24.457C156.099 23.5529 155.886 22.4304 155.886 21.0895C155.886 19.6973 156.107 18.5517 156.549 17.6527C156.991 16.7536 157.569 16.0884 158.283 15.6568C159.002 15.2253 159.775 15.0095 160.602 15.0095C161.224 15.0095 161.756 15.1174 162.197 15.3332C162.639 15.5438 163.004 15.8161 163.292 16.15C163.579 16.4839 163.798 16.8307 163.947 17.1903H164.024V11.2182H167.792V27H164.062V25.0812H163.947C163.787 25.446 163.561 25.7876 163.269 26.1061C162.976 26.4246 162.608 26.6815 162.167 26.8767C161.73 27.0719 161.214 27.1695 160.618 27.1695ZM161.928 24.2336C162.385 24.2336 162.775 24.1051 163.099 23.8483C163.423 23.5863 163.672 23.2189 163.846 22.7463C164.021 22.2737 164.108 21.7188 164.108 21.0818C164.108 20.4345 164.021 19.8771 163.846 19.4096C163.677 18.9421 163.428 18.5825 163.099 18.3308C162.775 18.0791 162.385 17.9532 161.928 17.9532C161.46 17.9532 161.065 18.0816 160.741 18.3385C160.417 18.5954 160.171 18.9575 160.001 19.425C159.837 19.8925 159.755 20.4448 159.755 21.0818C159.755 21.7188 159.839 22.2737 160.009 22.7463C160.178 23.2189 160.422 23.5863 160.741 23.8483C161.065 24.1051 161.46 24.2336 161.928 24.2336Z" fill="black"/>
</svg>
